<?xml version="1.0"?>
<svg xmlns="http://www.w3.org/2000/svg" id="Capa_1" enable-background="new 0 0 512 512" height="512px" viewBox="0 0 512 512" width="512px" class=""><g><g><path d="m492.606 36.038h-40.606v15h34.394l10.606 10.607v275.051h-414.5v15h414.5v19.394l-10.606 10.606h-460.788l-10.606-10.607v-19.394h52.499v-15h-52.499v-275.05l10.606-10.607h411.394v-15h-417.606l-19.394 19.394v321.87l19.394 19.394h194.835l-9.829 21.079h-74.178l-25.777 32.981v25.207h67.498v-15h-52.498v-5.041l18.092-23.147h236.931l18.092 23.147v5.041h-205.617v15h220.615v-25.207l-25.777-32.981h-74.179l-9.829-21.079h194.833l19.394-19.394v-321.87zm-201.553 381.736h-70.104l9.829-21.079h50.445z" data-original="#000000" class="active-path" data-old_color="#000000" fill="#4B4B5A"/><path d="m133.584 211.387h.083c5.468.045 9.88 4.531 9.835 10l15 .123c.093-11.356-7.467-21.018-17.849-24.095v-16.028h-15v16.302c-9.786 3.297-16.894 12.516-16.985 23.411-.112 13.739 10.973 25.008 24.712 25.122 5.468.045 9.88 4.531 9.835 9.999-.021 2.649-1.074 5.131-2.963 6.989s-4.353 2.863-7.036 2.846c-5.469-.045-9.881-4.531-9.836-9.999l-15-.123c-.091 11.145 7.188 20.664 17.273 23.922v16.2h15v-16.101c3.767-1.159 7.227-3.208 10.117-6.051 4.745-4.667 7.389-10.903 7.444-17.559.055-6.655-2.485-12.934-7.153-17.679-4.667-4.745-10.903-7.389-17.558-7.443-5.469-.045-9.881-4.531-9.836-9.999.046-5.442 4.486-9.837 9.917-9.837z" data-original="#000000" class="active-path" data-old_color="#000000" fill="#4B4B5A"/><path d="m364.941 296.055c9.831 0 18.573-4.754 24.047-12.083l26.906 12.083h28.606v-15h-25.393l-24.443-10.978c.177-1.317.277-2.658.277-4.022 0-16.542-13.458-30-30-30-5.199 0-10.092 1.331-14.36 3.667l-58.072-79.337c1.587-3.654 2.472-7.68 2.472-11.91 0-16.542-13.458-30-30-30-12.121 0-22.579 7.231-27.307 17.601l-74.792-22.357c-2.692-13.799-14.866-24.247-29.441-24.247-13.953 0-25.712 9.575-29.051 22.5h-23.449v15h23.449c3.339 12.925 15.098 22.5 29.051 22.5 13.186 0 24.405-8.555 28.417-20.404l73.234 21.891c1.268 15.383 14.184 27.516 29.889 27.516 6.684 0 12.863-2.199 17.856-5.909l56.734 77.509c-2.927 4.631-4.629 10.109-4.629 15.98-.001 16.542 13.457 30 29.999 30zm15-30c0 8.271-6.729 15-15 15s-15-6.729-15-15 6.729-15 15-15 15 6.729 15 15zm-246.5-131.582c-8.271 0-15-6.729-15-15s6.729-15 15-15 15 6.729 15 15-6.728 15-15 15zm131.54 29.002c-8.271 0-15-6.729-15-15s6.729-15 15-15 15 6.729 15 15-6.728 15-15 15z" data-original="#000000" class="active-path" data-old_color="#000000" fill="#4B4B5A"/><path d="m182.191 281.055h15.001v15h-15.001z" data-original="#000000" class="active-path" data-old_color="#000000" fill="#4B4B5A"/><path d="m212.192 281.055h52.5v15h-52.5z" data-original="#000000" class="active-path" data-old_color="#000000" fill="#4B4B5A"/><path d="m212.192 251.055h52.5v15h-52.5z" data-original="#000000" class="active-path" data-old_color="#000000" fill="#4B4B5A"/><path d="m182.191 251.055h15.001v15h-15.001z" data-original="#000000" class="active-path" data-old_color="#000000" fill="#4B4B5A"/><path d="m182.191 221.055h15.001v15h-15.001z" data-original="#000000" class="active-path" data-old_color="#000000" fill="#4B4B5A"/><path d="m212.192 221.055h52.5v15h-52.5z" data-original="#000000" class="active-path" data-old_color="#000000" fill="#4B4B5A"/><path d="m356.192 119.473h52.5v15h-52.5z" data-original="#000000" class="active-path" data-old_color="#000000" fill="#4B4B5A"/><path d="m356.192 149.472h52.5v15h-52.5z" data-original="#000000" class="active-path" data-old_color="#000000" fill="#4B4B5A"/><path d="m30 103.538h15v15h-15z" data-original="#000000" class="active-path" data-old_color="#000000" fill="#4B4B5A"/><path d="m30 73.538h15v15h-15z" data-original="#000000" class="active-path" data-old_color="#000000" fill="#4B4B5A"/></g></g> </svg>
