<?xml version="1.0" encoding="utf-8"?>
<!-- Generator: Adobe Illustrator 23.0.1, SVG Export Plug-In . SVG Version: 6.00 Build 0)  -->
<svg version="1.1" id="Layer_1" xmlns="http://www.w3.org/2000/svg" xmlns:xlink="http://www.w3.org/1999/xlink" x="0px" y="0px"
	 width="143px" height="40px" viewBox="0 0 143 40" style="enable-background:new 0 0 143 40;" xml:space="preserve">
<style type="text/css">
	.st0{fill:#E11F26;}
	.st1{fill:#FFFFFF;}
</style>
<g>
	<path class="st0" d="M38.2-207.6c0.1-7.5,0.2-14.5,0.2-21.7c3.1,0,6,0.1,9.2,0.1c0,0.9,0.1,1.8,0.1,2.6
		c-0.1,12.1-0.2,24.3-0.4,36.4c-0.2,11.1-9.2,19.7-20.3,19.6c-11-0.2-19.9-9.3-19.7-20.2c0.3-14.4,15-23.8,28.2-18
		C36.2-208.5,36.9-208.2,38.2-207.6z M38-190.1c0-5.7-4.9-10.8-10.6-10.8c-5.7,0-10.8,5-10.7,10.7c0,5.7,4.9,10.7,10.7,10.7
		C33.1-179.5,38-184.3,38-190.1z"/>
	<path class="st0" d="M-6.8-229.8c3.4,0,6.3,0.1,9.1,0.1c0.1,0.3,0.3,0.4,0.3,0.6c-0.1,13.1,0,26.2-0.4,39.3
		c-0.3,10.2-9.1,18.5-19.2,18.7c-10.4,0.2-19.6-7.4-20.5-17c-1.1-11.4,5.6-20.8,16.3-22.6c3.9-0.6,7.8-0.4,11.4,1.3
		c0.8,0.4,1.6,0.7,2.8,1.2C-7-212-7-215.5-7-219C-6.9-222.6-6.9-226.1-6.8-229.8z M-7.2-190.3c0.1-5.8-4.5-10.8-10.3-11
		c-5.7-0.2-10.8,4.6-11,10.4c-0.2,5.7,4.6,10.8,10.4,11C-12.3-179.8-7.3-184.5-7.2-190.3z"/>
	<path class="st0" d="M-43.3-171.4c-3.2,0-6.1-0.1-9.2-0.1c-0.1-0.7-0.2-1.5-0.4-2.4c-0.6,0.2-1.2,0.4-1.7,0.6
		c-11.2,4.9-23.9-0.5-27.4-11.8c-2.6-8.3-0.7-15.6,6-21.4c6.3-5.5,13.6-6.5,21.1-3.1c7.7,3.4,11.8,9.6,11.8,18.3
		C-43-184.9-43.2-178.3-43.3-171.4z M-52.4-191c0.1-5.8-4.7-10.7-10.5-10.9c-5.6-0.1-10.7,4.9-10.9,10.6
		c-0.1,5.7,4.8,10.7,10.6,10.8C-57.3-180.4-52.4-185.1-52.4-191z"/>
	<path class="st0" d="M91.9-170c-3.2,0-6-0.1-9.1-0.1c-0.1-0.7-0.3-1.5-0.5-2.6c-4.8,2.5-9.8,3.3-15,2c-9.9-2.4-16.1-11.8-14.9-22.6
		c1.1-9.1,10-16.7,19.5-16.6c11.6,0,20.3,8.8,20.2,20.4C92.1-183.1,92-176.6,91.9-170z M82.7-189.5c0.1-5.9-4.6-10.8-10.4-10.9
		c-5.7-0.1-10.8,4.8-10.9,10.5c-0.1,5.8,4.7,10.7,10.5,10.9C77.8-178.9,82.7-183.6,82.7-189.5z"/>
	<g>
		<path d="M144.7-228.4c0.5,4.8-3,8.8-7.3,8.8c-7.2-0.1-14.3-0.4-21.5-0.5c-1.1,0-2.2,0.2-3.5,0.3c-0.1,5.2-0.1,10.2-0.2,15.4
			c5.6-1.5,11.3-2.5,16.9-1.2c3.6,0.8,7.2,2,10.4,3.8c10.5,5.8,10.3,22-0.6,28.2c-7.5,4.3-15.5,4.6-23.7,3.7
			c-4.9-0.5-9.6-1.8-13.3-5.3c-0.6-0.6-1.2-1.6-1.3-2.4c-0.1-2,1.3-2.9,3.1-1.9c5.4,3,11.2,3.9,17.2,3.6c8.3-0.4,13.3-7,11.2-14.7
			c-1.3-4.9-7.5-8.8-13.6-8c-3,0.4-6,1.3-8.9,2.3c-2.5,0.9-3.9,0.3-3.9-2.3c0-8.8,0.1-17.6,0.3-26.3c0-2.3,1.2-3.9,3.8-3.9
			C121.4-228.7,133-228.5,144.7-228.4z"/>
		<path d="M159.5-176.5c1.7,0.4,2.7,0.7,3.6,0.7c5.8,0.1,11.7,0.3,17.5,0.1c1.7-0.1,3.4-1.1,5-1.9c0.8-0.4,1.4-1.4,2.1-2
			c1.2-1.1,2.1-3.3,4.3-2.2c2.2,1.1,1.4,3.4,0.9,5c-1.5,5.6-3.7,8.4-10.2,8.1c-10.3-0.5-20.6-0.3-30.8-0.4c-1.8,0-3.6,0.2-4.4-2
			c-0.7-2.2,0.7-3.4,2.2-4.7c5.8-5,11.6-9.9,17.1-15.1c2.6-2.5,4.9-5.7,6.5-9c1.4-2.9,2.1-6.4,2.3-9.6c0.3-3.5-1.7-6.2-5-7.8
			c-4.7-2.3-11.7-0.7-15,3.3c-0.2,0.2-0.3,0.4-0.5,0.6c-1.2,0.9-2.3,1.8-3.5,2.8c-0.4-1.5-1.4-3.3-1-4.6c1.4-4,3.2-7.7,5.1-11.5
			c0.2-0.5,1.6-0.5,2.5-0.5c2,0,4.2,0.8,6.1,0.3c5.7-1.6,11.1-1.1,16.3,1.1c9.1,3.9,12.5,13.9,7.8,22.6c-3.4,6.4-8.6,11.3-14.1,15.7
			c-3.7,2.9-7.6,5.6-11.3,8.3C162-178.5,161-177.7,159.5-176.5z"/>
		<path d="M142.6-160.9c-1.3,0-2.1,0-3.2,0c0,4.4-0.1,8.7-0.1,13.2c-1.3,0-2.4,0-3.8,0c0-3.7,0.1-7.4,0.1-11.1
			c0-0.8-0.6-1.6-0.9-2.4c-0.2-0.5-0.6-1-0.4-1.4c0.2-0.3,0.8-0.6,1.3-0.6c4.7,0,9.4,0,14.1,0.2c2.4,0.1,3.9,1.5,3.8,4.2
			c-0.1,3.7-0.1,7.4-0.1,11.3c-1.2,0-2.3,0-3.7,0c0-4.3,0.1-8.7,0.1-13.2c-1.3,0-2.2,0-3.4,0c0,4.4-0.1,8.7-0.1,13.2
			c-1.3,0-2.4,0-3.8,0C142.5-152,142.5-156.4,142.6-160.9z"/>
		<path d="M175.3-147.2c-1.4,0-2.4,0-3.7,0c0-4.4,0.1-8.7,0.1-13.3c-1.1-0.1-2-0.1-3.2-0.2c0,4.5-0.1,8.8-0.1,13.3
			c-1.3,0-2.4,0-3.8,0c0-4.3,0.1-8.6,0.1-13.1c-1.3,0-2.3,0-3.5,0c0,4.3-0.1,8.7-0.1,13.1c-1.3,0-2.3,0-3.3,0
			c-0.3-5.1-0.6-10.2-0.9-15.4c4.6,0.1,9.8,0,14.9,0.2c2,0.1,3.5,1.4,3.6,3.6C175.5-155.2,175.4-151.3,175.3-147.2z"/>
		<path d="M185.9-142c0-1.7,0-3.1,0-4.4c-0.2-0.2-0.4-0.3-0.5-0.4c-6.2-0.6-6.4-0.8-6.3-7.1c0-2.7,0.1-5.3,0.1-8
			c0-0.2,0.1-0.3,0.2-0.7c1,0,2.1,0,3.4,0c0,4.5-0.1,8.8-0.1,13.3c1.1,0,2.1,0,3.3,0c0-4.4,0.1-8.7,0.1-13.3c1.3,0,2.3,0,3.7,0
			c-0.1,6.6,0,13.1-0.4,19.6c-0.1,1-2,2.5-3.3,2.8c-2.3,0.4-4.7,0.1-7.2,0.1c0-1.4,0-2.7,0-4.2c1.1,0,2.1,0,3.2,0
			c0.2,0.7,0.4,1.4,0.6,2.2C183.9-142.1,184.8-142.1,185.9-142z"/>
		<path d="M119.9-163.2c1.4,0,2.4,0,3.7,0c0,4.5-0.1,8.8-0.1,13.3c1.2,0,2.1,0,3.3,0c0-4.3,0.1-8.7,0.1-13.3c1.4,0,2.5,0,3.6,0
			c0.2,5.2,0.4,10.2,0.6,15.5c-2.3,0-5.2,0.1-8.1-0.1c-1.8-0.2-3.2-1.3-3.2-3.3C119.8-155.1,119.8-159,119.9-163.2z"/>
		<path d="M212.4-225.5c-1.8,0-3.5-0.1-5.3-0.1c-2.9,0-3.2,0.5-3.3,3.8c-0.1,2.3,0.5,3.8,3.2,3.7c1.8-0.1,3.5,0,5.4,0
			c0.6,1.4,0.5,2.3-1.2,2.2c-1.6,0-3.2-0.1-4.8,0c-3.1,0.1-2.5,2.5-2.6,4.5c-0.1,2,0.8,3,2.8,2.9c1.5,0,3-0.1,4.5,0.1
			c0.6,0.1,1.1,0.8,1.6,1.2c-0.5,0.4-0.9,0.9-1.5,1c-0.9,0.2-1.8,0-2.6,0c-6.8,0.6-8-2.2-6.5-9.9c0.1-0.7,0-1.4,0-2.1
			c-0.1-2.3-0.5-4.6-0.1-6.8c0.2-1.1,1.8-2.4,2.9-2.7c2.2-0.4,4.6-0.2,6.9-0.1c0.5,0,0.9,1,1.4,1.5
			C212.8-225.9,212.6-225.7,212.4-225.5z"/>
		<path d="M116.2-163.4c0,1.9,0,3.4-0.1,5.1c-1.1,0-2.1,0-3.3,0c-0.1-0.9-0.2-1.8-0.4-2.8c-1,0-1.9,0-3.2,0c0,4.5-0.1,8.9-0.1,13.4
			c-1.4,0-2.4,0-3.7,0c0-4.2-0.2-8.4,0.3-12.5c0.1-1.1,2.1-2.7,3.5-3C111.3-163.8,113.7-163.4,116.2-163.4z"/>
		<path d="M201.1-197.3c0.2-1.5,0.2-3,0.7-4.4c0.8-2.1,3.5-2.8,7-2.2c2.2,0.4,3.4,1.9,3.6,4c0.1,1.8,0.1,3.6,0,5.3
			c-0.2,2.9-1.7,4.2-4.7,4.2c-4.7,0-6.2-0.9-6.4-4c-0.1-1,0-1.9,0-2.9C201.3-197.3,201.2-197.3,201.1-197.3z M210.2-196.8
			c0-4.4-0.2-4.7-3.3-4.7c-3.1,0-3.3,0.2-3.3,4.5c0,0.3,0,0.5,0,0.8c0,3.3,0.6,3.8,3.8,3.8C210.8-192.5,210-195.1,210.2-196.8z"/>
		<path d="M203.4-187.9c0,2.1,0,4.2-0.1,6.3c-0.1,2.4,1,3,3.2,3.1c2.3,0,3.6-0.5,3.5-3.1c-0.1-1.9,0-3.7,0.1-5.6c0-0.5,0.7-1,1-1.5
			c0.4,0.5,1.1,1,1.2,1.6c0.1,2.2,0.1,4.4-0.1,6.6c-0.3,3.2-2.2,4.5-6.3,4.3c-3.3-0.2-4.7-1.6-4.8-4.7c0-1.9-0.1-3.9,0.1-5.8
			c0.1-0.6,0.9-1.1,1.4-1.7C202.9-188.3,203.2-188.1,203.4-187.9z"/>
		<path class="st0" d="M207.8-171.6c0,1,0,1.8,0,2.8c-1,0-2,0-2.9,0C204.2-171.8,204.4-172,207.8-171.6z"/>
	</g>
</g>
<g>
	<path class="st0" d="M59.6,10.3c0-3.3,0-6.4,0-9.6c1.4,0,2.7,0,4.1,0c0,0.4,0.1,0.8,0.1,1.2c0,5.4,0,10.7,0,16.1
		c0,4.9-4,8.8-8.9,8.7c-4.9,0-8.8-4-8.8-8.8c0.1-6.4,6.5-10.6,12.4-8.1C58.7,9.9,59.1,10,59.6,10.3z M59.6,18c0-2.5-2.2-4.7-4.7-4.7
		c-2.5,0-4.7,2.3-4.7,4.8c0,2.5,2.2,4.7,4.8,4.7C57.5,22.7,59.6,20.6,59.6,18z"/>
	<path class="st0" d="M39.6,0.6c1.5,0,2.8,0,4,0c0.1,0.1,0.1,0.2,0.1,0.3c0,5.8,0.1,11.6,0,17.4c-0.1,4.5-4,8.2-8.4,8.4
		c-4.6,0.1-8.7-3.2-9.1-7.5c-0.5-5,2.4-9.2,7.1-10c1.7-0.3,3.4-0.2,5.1,0.5c0.3,0.2,0.7,0.3,1.2,0.5c0-1.7,0-3.2,0-4.8
		C39.6,3.9,39.6,2.3,39.6,0.6z M39.6,18.1c0-2.6-2-4.8-4.6-4.8c-2.5-0.1-4.7,2.1-4.8,4.6c-0.1,2.5,2.1,4.8,4.6,4.8
		C37.4,22.8,39.6,20.7,39.6,18.1z"/>
	<path class="st0" d="M23.8,26.6c-1.4,0-2.7,0-4.1,0c-0.1-0.3-0.1-0.7-0.2-1.1c-0.3,0.1-0.5,0.2-0.7,0.3C13.9,28,8.2,25.7,6.6,20.7
		c-1.2-3.6-0.4-6.9,2.5-9.5c2.8-2.4,6-2.9,9.3-1.5c3.4,1.5,5.3,4.2,5.3,8C23.8,20.7,23.8,23.6,23.8,26.6z M19.6,18
		c0-2.6-2.1-4.7-4.7-4.8c-2.5,0-4.7,2.2-4.8,4.7c0,2.5,2.2,4.7,4.7,4.7C17.5,22.7,19.6,20.6,19.6,18z"/>
	<path class="st0" d="M83.5,26.7c-1.4,0-2.7,0-4,0c-0.1-0.3-0.1-0.7-0.2-1.1c-2.1,1.1-4.3,1.5-6.6,1c-4.4-1-7.2-5.1-6.7-10
		c0.4-4,4.3-7.4,8.6-7.4c5.1,0,9,3.8,9,8.9C83.5,20.9,83.5,23.8,83.5,26.7z M79.4,18.1c0-2.6-2.1-4.8-4.6-4.8
		c-2.5,0-4.7,2.2-4.8,4.7c0,2.6,2.1,4.7,4.7,4.8C77.2,22.8,79.4,20.7,79.4,18.1z"/>
	<g>
		<path class="st1" d="M106.6,0.7c0.2,2.1-1.3,3.9-3.2,3.9c-3.2,0-6.3-0.1-9.5-0.1c-0.5,0-1,0.1-1.5,0.2c0,2.3,0,4.5,0,6.8
			c2.5-0.7,5-1.2,7.5-0.6c1.6,0.4,3.2,0.9,4.6,1.6c4.7,2.5,4.6,9.7-0.1,12.5c-3.3,1.9-6.8,2.1-10.5,1.7c-2.2-0.2-4.3-0.7-5.9-2.3
			c-0.3-0.3-0.6-0.7-0.6-1.1c-0.1-0.9,0.6-1.3,1.4-0.8c2.4,1.3,5,1.7,7.6,1.5c3.7-0.2,5.9-3.1,4.9-6.5c-0.6-2.2-3.3-3.8-6-3.5
			c-1.3,0.2-2.7,0.6-3.9,1.1c-1.1,0.4-1.7,0.2-1.7-1c0-3.9,0-7.8,0-11.6c0-1,0.5-1.7,1.6-1.7C96.3,0.6,101.4,0.7,106.6,0.7z"/>
		<path class="st1" d="M113.4,23.6c0.8,0.2,1.2,0.3,1.6,0.3c2.6,0,5.2,0.1,7.8,0c0.8,0,1.5-0.5,2.2-0.9c0.4-0.2,0.6-0.6,0.9-0.9
			c0.5-0.5,0.9-1.5,1.9-1c1,0.5,0.6,1.5,0.4,2.2c-0.7,2.5-1.6,3.7-4.5,3.6c-4.5-0.2-9.1-0.1-13.6-0.1c-0.8,0-1.6,0.1-1.9-0.9
			c-0.3-1,0.3-1.5,0.9-2.1c2.5-2.2,5.1-4.4,7.5-6.8c1.2-1.1,2.2-2.5,2.8-4c0.6-1.3,0.9-2.8,1-4.3c0.1-1.6-0.8-2.7-2.2-3.4
			c-2.1-1-5.2-0.3-6.6,1.5c-0.1,0.1-0.1,0.2-0.2,0.3c-0.5,0.4-1,0.8-1.5,1.2c-0.2-0.7-0.6-1.5-0.5-2c0.6-1.8,1.4-3.4,2.2-5.1
			c0.1-0.2,0.7-0.2,1.1-0.2c0.9,0,1.9,0.3,2.7,0.1c2.5-0.7,4.9-0.6,7.2,0.4c4,1.7,5.6,6.1,3.5,10c-1.5,2.8-3.7,5-6.2,7
			c-1.6,1.3-3.3,2.5-5,3.7C114.4,22.7,114,23,113.4,23.6z"/>
		<path class="st1" d="M105.9,30.5c-0.6,0-0.9,0-1.4,0c0,2,0,3.9,0,5.9c-0.6,0-1.1,0-1.7,0c0-1.6,0-3.3,0-4.9c0-0.4-0.3-0.7-0.4-1.1
			c-0.1-0.2-0.2-0.5-0.2-0.6c0.1-0.2,0.4-0.3,0.6-0.3c2.1,0,4.2-0.1,6.2,0c1,0,1.7,0.7,1.7,1.8c0,1.6,0,3.3,0,5c-0.5,0-1,0-1.6,0
			c0-1.9,0-3.8,0-5.8c-0.6,0-1,0-1.5,0c0,2,0,3.9,0,5.8c-0.6,0-1.1,0-1.7,0C105.9,34.4,105.9,32.5,105.9,30.5z"/>
		<path class="st1" d="M120.5,36.4c-0.6,0-1.1,0-1.6,0c0-2,0-3.9,0-5.9c-0.5,0-0.9,0-1.4-0.1c0,2,0,3.9,0,5.9c-0.6,0-1.1,0-1.7,0
			c0-1.9,0-3.8,0-5.8c-0.6,0-1,0-1.6,0c0,1.9,0,3.8,0,5.8c-0.6,0-1,0-1.5,0c-0.1-2.2-0.3-4.5-0.4-6.8c2.1,0,4.3,0,6.6,0
			c0.9,0,1.6,0.6,1.6,1.6C120.5,32.9,120.5,34.6,120.5,36.4z"/>
		<path class="st1" d="M125.2,38.7c0-0.7,0-1.4,0-1.9c-0.1-0.1-0.2-0.2-0.2-0.2c-2.8-0.2-2.8-0.3-2.8-3.1c0-1.2,0-2.4,0-3.5
			c0-0.1,0-0.1,0.1-0.3c0.5,0,0.9,0,1.5,0c0,2,0,3.9,0,5.9c0.5,0,0.9,0,1.5,0c0-1.9,0-3.9,0-5.9c0.6,0,1,0,1.7,0
			c0,2.9,0.1,5.8-0.1,8.7c0,0.5-0.9,1.1-1.4,1.2c-1,0.2-2.1,0.1-3.2,0.1c0-0.6,0-1.2,0-1.9c0.5,0,0.9,0,1.4,0c0.1,0.3,0.2,0.6,0.3,1
			C124.3,38.7,124.7,38.7,125.2,38.7z"/>
		<path class="st1" d="M95.9,29.6c0.6,0,1.1,0,1.6,0c0,2,0,3.9,0,5.9c0.5,0,0.9,0,1.5,0c0-1.9,0-3.9,0-5.9c0.6,0,1.1,0,1.6,0
			c0.1,2.3,0.2,4.5,0.3,6.8c-1,0-2.3,0.1-3.6,0c-0.8-0.1-1.4-0.6-1.4-1.5C95.9,33.2,95.9,31.4,95.9,29.6z"/>
		<path class="st1" d="M136.6,1.7c-0.8,0-1.6,0-2.3,0c-1.3,0-1.4,0.3-1.5,1.7c0,1,0.2,1.7,1.4,1.6c0.8,0,1.6,0,2.4,0
			c0.3,0.6,0.2,1-0.5,1c-0.7,0-1.4,0-2.1,0c-1.4,0.1-1.1,1.1-1.2,2c0,0.9,0.4,1.3,1.3,1.3c0.7,0,1.3,0,2,0c0.3,0,0.5,0.3,0.7,0.5
			c-0.2,0.2-0.4,0.4-0.7,0.5c-0.4,0.1-0.8,0-1.2,0c-3,0.3-3.5-0.9-2.9-4.3c0.1-0.3,0-0.6,0-0.9c0-1-0.2-2-0.1-3
			c0.1-0.5,0.8-1.1,1.3-1.2c1-0.2,2-0.1,3-0.1c0.2,0,0.4,0.4,0.6,0.6C136.8,1.5,136.7,1.6,136.6,1.7z"/>
		<path class="st1" d="M94.3,29.5c0,0.8,0,1.5,0,2.2c-0.5,0-0.9,0-1.5,0c-0.1-0.4-0.1-0.8-0.2-1.2c-0.4,0-0.9,0-1.4,0
			c0,2,0,3.9,0,5.9c-0.6,0-1.1,0-1.7,0c0-1.9-0.1-3.7,0.1-5.5c0.1-0.5,0.9-1.2,1.5-1.3C92.1,29.4,93.2,29.5,94.3,29.5z"/>
		<path class="st1" d="M131.7,14.2c0.1-0.7,0.1-1.3,0.3-1.9c0.4-0.9,1.5-1.3,3.1-1c1,0.2,1.5,0.8,1.6,1.8c0.1,0.8,0.1,1.6,0,2.4
			c-0.1,1.3-0.7,1.9-2.1,1.9c-2.1,0-2.8-0.4-2.9-1.8C131.8,15.1,131.8,14.6,131.7,14.2C131.8,14.2,131.7,14.2,131.7,14.2z
			 M135.7,14.4c0-1.9-0.1-2.1-1.5-2.1c-1.4,0-1.5,0.1-1.5,2c0,0.1,0,0.2,0,0.4c0,1.5,0.3,1.7,1.7,1.7
			C136,16.3,135.6,15.1,135.7,14.4z"/>
		<path class="st1" d="M132.8,18.3c0,0.9,0,1.9,0,2.8c-0.1,1.1,0.5,1.3,1.4,1.3c1,0,1.6-0.2,1.5-1.4c0-0.8,0-1.6,0-2.5
			c0-0.2,0.3-0.4,0.5-0.7c0.2,0.2,0.5,0.5,0.5,0.7c0.1,1,0.1,2,0,2.9c-0.1,1.4-1,2-2.8,1.9c-1.4-0.1-2.1-0.7-2.1-2.1
			c0-0.9-0.1-1.7,0-2.6c0-0.3,0.4-0.5,0.6-0.8C132.5,18.2,132.6,18.2,132.8,18.3z"/>
		<path class="st0" d="M134.8,25.5c0,0.4,0,0.8,0,1.2c-0.5,0-0.9,0-1.3,0C133.1,25.4,133.2,25.4,134.8,25.5z"/>
	</g>
</g>
</svg>
