<svg id="visual" viewBox="0 0 960 540" width="960" height="540" xmlns="http://www.w3.org/2000/svg" xmlns:xlink="http://www.w3.org/1999/xlink" version="1.1"><path d="M0 147L87 131L175 168L262 185L349 239L436 190L524 109L611 131L698 217L785 82L873 239L960 114L960 0L873 0L785 0L698 0L611 0L524 0L436 0L349 0L262 0L175 0L87 0L0 0Z" fill="#00cc8e"></path><path d="M0 352L87 347L175 363L262 276L349 341L436 298L524 287L611 368L698 336L785 266L873 347L960 244L960 112L873 237L785 80L698 215L611 129L524 107L436 188L349 237L262 183L175 166L87 129L0 145Z" fill="#00b98a"></path><path d="M0 428L87 401L175 411L262 374L349 406L436 411L524 368L611 438L698 384L785 390L873 460L960 368L960 242L873 345L785 264L698 334L611 366L524 285L436 296L349 339L262 274L175 361L87 345L0 350Z" fill="#00a784"></path><path d="M0 503L87 492L175 492L262 433L349 492L436 492L524 449L611 503L698 460L785 476L873 503L960 460L960 366L873 458L785 388L698 382L611 436L524 366L436 409L349 404L262 372L175 409L87 399L0 426Z" fill="#00957c"></path><path d="M0 541L87 541L175 541L262 541L349 541L436 541L524 541L611 541L698 541L785 541L873 541L960 541L960 458L873 501L785 474L698 458L611 501L524 447L436 490L349 490L262 431L175 490L87 490L0 501Z" fill="#038373"></path></svg>