<svg id="visual" viewBox="0 0 960 540" width="960" height="540" xmlns="http://www.w3.org/2000/svg" xmlns:xlink="http://www.w3.org/1999/xlink" version="1.1"><path d="M0 93L87 93L87 82L175 82L175 39L262 39L262 77L349 77L349 82L436 82L436 33L524 33L524 44L611 44L611 77L698 77L698 50L785 50L785 50L873 50L873 60L960 60L960 82L960 0L960 0L873 0L873 0L785 0L785 0L698 0L698 0L611 0L611 0L524 0L524 0L436 0L436 0L349 0L349 0L262 0L262 0L175 0L175 0L87 0L87 0L0 0Z" fill="#fa7268"></path><path d="M0 185L87 185L87 266L175 266L175 206L262 206L262 195L349 195L349 244L436 244L436 266L524 266L524 249L611 249L611 147L698 147L698 233L785 233L785 244L873 244L873 147L960 147L960 266L960 80L960 58L873 58L873 48L785 48L785 48L698 48L698 75L611 75L611 42L524 42L524 31L436 31L436 80L349 80L349 75L262 75L262 37L175 37L175 80L87 80L87 91L0 91Z" fill="#ea5e66"></path><path d="M0 298L87 298L87 363L175 363L175 368L262 368L262 244L349 244L349 363L436 363L436 368L524 368L524 298L611 298L611 255L698 255L698 379L785 379L785 357L873 357L873 201L960 201L960 406L960 264L960 145L873 145L873 242L785 242L785 231L698 231L698 145L611 145L611 247L524 247L524 264L436 264L436 242L349 242L349 193L262 193L262 204L175 204L175 264L87 264L87 183L0 183Z" fill="#d84a64"></path><path d="M0 444L87 444L87 487L175 487L175 492L262 492L262 471L349 471L349 498L436 498L436 492L524 492L524 465L611 465L611 438L698 438L698 460L785 460L785 438L873 438L873 433L960 433L960 503L960 404L960 199L873 199L873 355L785 355L785 377L698 377L698 253L611 253L611 296L524 296L524 366L436 366L436 361L349 361L349 242L262 242L262 366L175 366L175 361L87 361L87 296L0 296Z" fill="#c53762"></path><path d="M0 541L87 541L87 541L175 541L175 541L262 541L262 541L349 541L349 541L436 541L436 541L524 541L524 541L611 541L611 541L698 541L698 541L785 541L785 541L873 541L873 541L960 541L960 541L960 501L960 431L873 431L873 436L785 436L785 458L698 458L698 436L611 436L611 463L524 463L524 490L436 490L436 496L349 496L349 469L262 469L262 490L175 490L175 485L87 485L87 442L0 442Z" fill="#b0235f"></path></svg>