<svg id="visual" viewBox="0 0 960 540" width="960" height="540" xmlns="http://www.w3.org/2000/svg" xmlns:xlink="http://www.w3.org/1999/xlink" version="1.1"><rect x="0" y="0" width="960" height="540" fill="#001220"></rect><defs><linearGradient id="grad1_0" x1="43.8%" y1="0%" x2="100%" y2="100%"><stop offset="14.444444444444446%" stop-color="#001220" stop-opacity="1"></stop><stop offset="85.55555555555554%" stop-color="#001220" stop-opacity="1"></stop></linearGradient></defs><defs><linearGradient id="grad2_0" x1="0%" y1="0%" x2="56.3%" y2="100%"><stop offset="14.444444444444446%" stop-color="#001220" stop-opacity="1"></stop><stop offset="85.55555555555554%" stop-color="#001220" stop-opacity="1"></stop></linearGradient></defs><g transform="translate(960, 0)"><path d="M0 486C-68.7 480.8 -137.4 475.6 -182.2 439.8C-226.9 403.9 -247.7 337.4 -294.2 294.2C-340.6 251 -412.8 231.1 -449 186C-485.3 140.9 -485.6 70.4 -486 0L0 0Z" fill="#FBAE3C"></path></g><g transform="translate(0, 540)"><path d="M0 -486C51 -453.8 102.1 -421.6 167.6 -404.7C233.2 -387.8 313.2 -386.2 343.7 -343.7C374.1 -301.1 355 -217.6 370.5 -153.5C385.9 -89.3 436 -44.7 486 0L0 0Z" fill="#FBAE3C"></path></g></svg>