<svg id="visual" viewBox="0 0 960 540" width="960" height="540" xmlns="http://www.w3.org/2000/svg" xmlns:xlink="http://www.w3.org/1999/xlink" version="1.1"><rect x="0" y="0" width="960" height="540" fill="#ff545a"></rect><g transform="translate(521.2371854847393 319.6244889801213)"><path d="M241.2 -379.3C298.2 -338.7 320.1 -247.4 344.2 -165.7C368.2 -84 394.5 -11.7 354.5 29C314.5 69.8 208.2 79.1 156.4 131.1C104.5 183 106.9 277.7 78.3 302.4C49.7 327.2 -10 282.1 -85 269.3C-160 256.4 -250.4 275.9 -327.9 249.2C-405.4 222.5 -470 149.7 -455.6 81.1C-441.2 12.5 -348 -51.9 -299 -127.1C-250 -202.3 -245.3 -288.3 -202.8 -335.6C-160.4 -382.9 -80.2 -391.5 5.9 -400.7C92.1 -410 184.2 -419.9 241.2 -379.3" fill="#bb0950"></path></g></svg>