<svg id="visual" viewBox="0 0 960 540" width="960" height="540" xmlns="http://www.w3.org/2000/svg" xmlns:xlink="http://www.w3.org/1999/xlink" version="1.1"><path d="M0 60L14.5 60C29 60 58 60 87.2 64.5C116.3 69 145.7 78 174.8 79C204 80 233 73 262 73C291 73 320 80 349 84.5C378 89 407 91 436.2 87.5C465.3 84 494.7 75 523.8 71.3C553 67.7 582 69.3 611 72C640 74.7 669 78.3 698 73.8C727 69.3 756 56.7 785.2 56.7C814.3 56.7 843.7 69.3 872.8 74.8C902 80.3 931 78.7 945.5 77.8L960 77L960 0L945.5 0C931 0 902 0 872.8 0C843.7 0 814.3 0 785.2 0C756 0 727 0 698 0C669 0 640 0 611 0C582 0 553 0 523.8 0C494.7 0 465.3 0 436.2 0C407 0 378 0 349 0C320 0 291 0 262 0C233 0 204 0 174.8 0C145.7 0 116.3 0 87.2 0C58 0 29 0 14.5 0L0 0Z" fill="#6198ff"></path><path d="M0 293L14.5 280.3C29 267.7 58 242.3 87.2 230.5C116.3 218.7 145.7 220.3 174.8 216.7C204 213 233 204 262 196C291 188 320 181 349 194.5C378 208 407 242 436.2 249.2C465.3 256.3 494.7 236.7 523.8 235C553 233.3 582 249.7 611 245.2C640 240.7 669 215.3 698 202.7C727 190 756 190 785.2 196.3C814.3 202.7 843.7 215.3 872.8 232.5C902 249.7 931 271.3 945.5 282.2L960 293L960 75L945.5 75.8C931 76.7 902 78.3 872.8 72.8C843.7 67.3 814.3 54.7 785.2 54.7C756 54.7 727 67.3 698 71.8C669 76.3 640 72.7 611 70C582 67.3 553 65.7 523.8 69.3C494.7 73 465.3 82 436.2 85.5C407 89 378 87 349 82.5C320 78 291 71 262 71C233 71 204 78 174.8 77C145.7 76 116.3 67 87.2 62.5C58 58 29 58 14.5 58L0 58Z" fill="#3c80ff"></path><path d="M0 363L14.5 346.8C29 330.7 58 298.3 87.2 291.2C116.3 284 145.7 302 174.8 314.5C204 327 233 334 262 331.2C291 328.3 320 315.7 349 322.8C378 330 407 357 436.2 353.5C465.3 350 494.7 316 523.8 317.8C553 319.7 582 357.3 611 359.2C640 361 669 327 698 301.8C727 276.7 756 260.3 785.2 262C814.3 263.7 843.7 283.3 872.8 299.5C902 315.7 931 328.3 945.5 334.7L960 341L960 291L945.5 280.2C931 269.3 902 247.7 872.8 230.5C843.7 213.3 814.3 200.7 785.2 194.3C756 188 727 188 698 200.7C669 213.3 640 238.7 611 243.2C582 247.7 553 231.3 523.8 233C494.7 234.7 465.3 254.3 436.2 247.2C407 240 378 206 349 192.5C320 179 291 186 262 194C233 202 204 211 174.8 214.7C145.7 218.3 116.3 216.7 87.2 228.5C58 240.3 29 265.7 14.5 278.3L0 291Z" fill="#0066ff"></path><path d="M0 444L14.5 425C29 406 58 368 87.2 354.5C116.3 341 145.7 352 174.8 365.5C204 379 233 395 262 398.5C291 402 320 393 349 401.2C378 409.3 407 434.7 436.2 432C465.3 429.3 494.7 398.7 523.8 401.3C553 404 582 440 611 433.7C640 427.3 669 378.7 698 359.8C727 341 756 352 785.2 360.2C814.3 368.3 843.7 373.7 872.8 378.2C902 382.7 931 386.3 945.5 388.2L960 390L960 339L945.5 332.7C931 326.3 902 313.7 872.8 297.5C843.7 281.3 814.3 261.7 785.2 260C756 258.3 727 274.7 698 299.8C669 325 640 359 611 357.2C582 355.3 553 317.7 523.8 315.8C494.7 314 465.3 348 436.2 351.5C407 355 378 328 349 320.8C320 313.7 291 326.3 262 329.2C233 332 204 325 174.8 312.5C145.7 300 116.3 282 87.2 289.2C58 296.3 29 328.7 14.5 344.8L0 361Z" fill="#0059dd"></path><path d="M0 541L14.5 541C29 541 58 541 87.2 541C116.3 541 145.7 541 174.8 541C204 541 233 541 262 541C291 541 320 541 349 541C378 541 407 541 436.2 541C465.3 541 494.7 541 523.8 541C553 541 582 541 611 541C640 541 669 541 698 541C727 541 756 541 785.2 541C814.3 541 843.7 541 872.8 541C902 541 931 541 945.5 541L960 541L960 388L945.5 386.2C931 384.3 902 380.7 872.8 376.2C843.7 371.7 814.3 366.3 785.2 358.2C756 350 727 339 698 357.8C669 376.7 640 425.3 611 431.7C582 438 553 402 523.8 399.3C494.7 396.7 465.3 427.3 436.2 430C407 432.7 378 407.3 349 399.2C320 391 291 400 262 396.5C233 393 204 377 174.8 363.5C145.7 350 116.3 339 87.2 352.5C58 366 29 404 14.5 423L0 442Z" fill="#004cbb"></path></svg>